<svg width="11" height="20" viewBox="0 0 11 20" fill="none" xmlns="http://www.w3.org/2000/svg">
<path d="M1.03683 1.71352C0.972354 1.65344 0.92064 1.58099 0.884771 1.50049C0.848903 1.41999 0.829617 1.33309 0.828063 1.24497C0.826508 1.15686 0.842717 1.06933 0.875723 0.987619C0.908728 0.905904 0.957855 0.831674 1.02017 0.769359C1.08249 0.707042 1.15672 0.657914 1.23843 0.62491C1.32015 0.591903 1.40767 0.575694 1.49579 0.577249C1.5839 0.578803 1.6708 0.59809 1.7513 0.633958C1.8318 0.669826 1.90425 0.72154 1.96433 0.786016L10.7143 9.53602C10.8372 9.65906 10.9063 9.82586 10.9063 9.99977C10.9063 10.1737 10.8372 10.3405 10.7143 10.4635L1.96433 19.2135C1.83993 19.3294 1.67538 19.3925 1.50537 19.3895C1.33536 19.3865 1.17315 19.3177 1.05291 19.1974C0.932673 19.0772 0.8638 18.915 0.860801 18.745C0.857801 18.575 0.920908 18.4104 1.03683 18.286L9.32198 9.99977L1.03683 1.71352Z" fill="#5C5C5C"/>
</svg>
